<mxfile host="app.diagrams.net" modified="2023-05-15T23:51:25.895Z" agent="Mozilla/5.0 (Windows NT 10.0; Win64; x64; rv:109.0) Gecko/20100101 Firefox/113.0" etag="dYjm_LCloynC1ZdIfA97" version="21.3.2" type="github">
  <diagram name="Page-1" id="n62t-O-tzqDGdzTkSi4j">
    <mxGraphModel dx="954" dy="556" grid="1" gridSize="10" guides="1" tooltips="1" connect="1" arrows="1" fold="1" page="1" pageScale="1" pageWidth="1100" pageHeight="1700" math="0" shadow="0">
      <root>
        <mxCell id="0" />
        <mxCell id="1" parent="0" />
        <mxCell id="NY6FzfezgdDMYc2XJuMs-1" value="Actor" style="shape=umlActor;verticalLabelPosition=bottom;verticalAlign=top;html=1;outlineConnect=0;" parent="1" vertex="1">
          <mxGeometry x="80" y="40" width="30" height="60" as="geometry" />
        </mxCell>
        <mxCell id="NY6FzfezgdDMYc2XJuMs-3" value="Database" style="html=1;whiteSpace=wrap;" parent="1" vertex="1">
          <mxGeometry x="540" y="45" width="110" height="50" as="geometry" />
        </mxCell>
        <mxCell id="NY6FzfezgdDMYc2XJuMs-4" value="Admin panel" style="html=1;whiteSpace=wrap;" parent="1" vertex="1">
          <mxGeometry x="280" y="45" width="110" height="50" as="geometry" />
        </mxCell>
        <mxCell id="NY6FzfezgdDMYc2XJuMs-5" value="" style="endArrow=none;dashed=1;endFill=0;endSize=12;html=1;rounded=0;" parent="1" edge="1">
          <mxGeometry width="160" relative="1" as="geometry">
            <mxPoint x="94.5" y="120" as="sourcePoint" />
            <mxPoint x="95" y="1520" as="targetPoint" />
          </mxGeometry>
        </mxCell>
        <mxCell id="NY6FzfezgdDMYc2XJuMs-6" value="" style="endArrow=none;dashed=1;endFill=0;endSize=12;html=1;rounded=0;" parent="1" source="NY6FzfezgdDMYc2XJuMs-54" edge="1">
          <mxGeometry width="160" relative="1" as="geometry">
            <mxPoint x="334.5" y="95" as="sourcePoint" />
            <mxPoint x="335" y="1520" as="targetPoint" />
          </mxGeometry>
        </mxCell>
        <mxCell id="NY6FzfezgdDMYc2XJuMs-7" value="" style="endArrow=none;dashed=1;endFill=0;endSize=12;html=1;rounded=0;" parent="1" source="NY6FzfezgdDMYc2XJuMs-56" edge="1">
          <mxGeometry width="160" relative="1" as="geometry">
            <mxPoint x="594.5" y="95" as="sourcePoint" />
            <mxPoint x="595" y="1520" as="targetPoint" />
          </mxGeometry>
        </mxCell>
        <mxCell id="NY6FzfezgdDMYc2XJuMs-8" value="&lt;pre&gt;&lt;code class=&quot;!whitespace-pre hljs language-makefile&quot;&gt;Requests to view the repair &lt;br&gt;schedule&lt;/code&gt;&lt;/pre&gt;" style="text;html=1;align=center;verticalAlign=middle;resizable=0;points=[];autosize=1;strokeColor=none;fillColor=none;" parent="1" vertex="1">
          <mxGeometry x="100" y="130" width="220" height="70" as="geometry" />
        </mxCell>
        <mxCell id="NY6FzfezgdDMYc2XJuMs-9" value="&lt;pre&gt;&lt;code class=&quot;!whitespace-pre hljs language-makefile&quot;&gt;Retrieves repair schedule data&lt;/code&gt;&lt;/pre&gt;" style="text;html=1;align=center;verticalAlign=middle;resizable=0;points=[];autosize=1;strokeColor=none;fillColor=none;" parent="1" vertex="1">
          <mxGeometry x="350" y="210" width="230" height="50" as="geometry" />
        </mxCell>
        <mxCell id="NY6FzfezgdDMYc2XJuMs-10" value="&lt;pre&gt;&lt;code class=&quot;!whitespace-pre hljs language-makefile&quot;&gt;Returns repair schedule data&lt;/code&gt;&lt;/pre&gt;" style="text;html=1;align=center;verticalAlign=middle;resizable=0;points=[];autosize=1;strokeColor=none;fillColor=none;" parent="1" vertex="1">
          <mxGeometry x="350" y="270" width="220" height="50" as="geometry" />
        </mxCell>
        <mxCell id="NY6FzfezgdDMYc2XJuMs-11" value="&lt;pre&gt;&lt;code class=&quot;!whitespace-pre hljs language-makefile&quot;&gt;Displays repair schedule data&lt;/code&gt;&lt;/pre&gt;" style="text;html=1;align=center;verticalAlign=middle;resizable=0;points=[];autosize=1;strokeColor=none;fillColor=none;" parent="1" vertex="1">
          <mxGeometry x="100" y="320" width="230" height="50" as="geometry" />
        </mxCell>
        <mxCell id="NY6FzfezgdDMYc2XJuMs-12" value="&lt;pre&gt;&lt;code class=&quot;!whitespace-pre hljs language-makefile&quot;&gt;Requests to add a repair task&lt;/code&gt;&lt;/pre&gt;" style="text;html=1;align=center;verticalAlign=middle;resizable=0;points=[];autosize=1;strokeColor=none;fillColor=none;" parent="1" vertex="1">
          <mxGeometry x="100" y="388" width="230" height="50" as="geometry" />
        </mxCell>
        <mxCell id="NY6FzfezgdDMYc2XJuMs-13" value="&lt;pre&gt;&lt;code class=&quot;!whitespace-pre hljs language-makefile&quot;&gt;Displays add repair task form&lt;/code&gt;&lt;/pre&gt;" style="text;html=1;align=center;verticalAlign=middle;resizable=0;points=[];autosize=1;strokeColor=none;fillColor=none;" parent="1" vertex="1">
          <mxGeometry x="95" y="448" width="230" height="50" as="geometry" />
        </mxCell>
        <mxCell id="NY6FzfezgdDMYc2XJuMs-14" value="&lt;pre&gt;&lt;code class=&quot;!whitespace-pre hljs language-makefile&quot;&gt;Fills in repair task details &lt;br&gt;and submits form&lt;/code&gt;&lt;/pre&gt;" style="text;html=1;align=center;verticalAlign=middle;resizable=0;points=[];autosize=1;strokeColor=none;fillColor=none;" parent="1" vertex="1">
          <mxGeometry x="95" y="498" width="230" height="70" as="geometry" />
        </mxCell>
        <mxCell id="NY6FzfezgdDMYc2XJuMs-15" value="&lt;pre&gt;&lt;code class=&quot;!whitespace-pre hljs language-makefile&quot;&gt;Saves repair task data&lt;/code&gt;&lt;/pre&gt;" style="text;html=1;align=center;verticalAlign=middle;resizable=0;points=[];autosize=1;strokeColor=none;fillColor=none;" parent="1" vertex="1">
          <mxGeometry x="375" y="560" width="180" height="50" as="geometry" />
        </mxCell>
        <mxCell id="NY6FzfezgdDMYc2XJuMs-16" value="&lt;pre&gt;&lt;code class=&quot;!whitespace-pre hljs language-makefile&quot;&gt;Confirms successful task addition&lt;/code&gt;&lt;/pre&gt;" style="text;html=1;align=center;verticalAlign=middle;resizable=0;points=[];autosize=1;strokeColor=none;fillColor=none;" parent="1" vertex="1">
          <mxGeometry x="335" y="630" width="250" height="50" as="geometry" />
        </mxCell>
        <mxCell id="NY6FzfezgdDMYc2XJuMs-17" value="&lt;pre&gt;&lt;code class=&quot;!whitespace-pre hljs language-makefile&quot;&gt;Displays success message&lt;/code&gt;&lt;/pre&gt;" style="text;html=1;align=center;verticalAlign=middle;resizable=0;points=[];autosize=1;strokeColor=none;fillColor=none;" parent="1" vertex="1">
          <mxGeometry x="115" y="690" width="190" height="50" as="geometry" />
        </mxCell>
        <mxCell id="NY6FzfezgdDMYc2XJuMs-18" value="&lt;pre&gt;&lt;code class=&quot;!whitespace-pre hljs language-makefile&quot;&gt;Requests to update a repair task &lt;br&gt;status&lt;/code&gt;&lt;/pre&gt;" style="text;html=1;align=center;verticalAlign=middle;resizable=0;points=[];autosize=1;strokeColor=none;fillColor=none;" parent="1" vertex="1">
          <mxGeometry x="90" y="748" width="250" height="70" as="geometry" />
        </mxCell>
        <mxCell id="NY6FzfezgdDMYc2XJuMs-19" value="&lt;pre&gt;&lt;code class=&quot;!whitespace-pre hljs language-makefile&quot;&gt;Displays update repair task &lt;br&gt;status form&lt;/code&gt;&lt;/pre&gt;" style="text;html=1;align=center;verticalAlign=middle;resizable=0;points=[];autosize=1;strokeColor=none;fillColor=none;" parent="1" vertex="1">
          <mxGeometry x="105" y="815" width="220" height="70" as="geometry" />
        </mxCell>
        <mxCell id="NY6FzfezgdDMYc2XJuMs-20" value="&lt;pre&gt;&lt;code class=&quot;!whitespace-pre hljs language-makefile&quot;&gt;Selects task and updates status&lt;/code&gt;&lt;/pre&gt;" style="text;html=1;align=center;verticalAlign=middle;resizable=0;points=[];autosize=1;strokeColor=none;fillColor=none;" parent="1" vertex="1">
          <mxGeometry x="95" y="900" width="240" height="50" as="geometry" />
        </mxCell>
        <mxCell id="NY6FzfezgdDMYc2XJuMs-21" value="&lt;pre&gt;&lt;code class=&quot;!whitespace-pre hljs language-makefile&quot;&gt;Updates task status data&lt;/code&gt;&lt;/pre&gt;" style="text;html=1;align=center;verticalAlign=middle;resizable=0;points=[];autosize=1;strokeColor=none;fillColor=none;" parent="1" vertex="1">
          <mxGeometry x="365" y="950" width="190" height="50" as="geometry" />
        </mxCell>
        <mxCell id="NY6FzfezgdDMYc2XJuMs-22" value="&lt;pre&gt;&lt;code class=&quot;!whitespace-pre hljs language-makefile&quot;&gt;Confirms successful status update&lt;/code&gt;&lt;/pre&gt;" style="text;html=1;align=center;verticalAlign=middle;resizable=0;points=[];autosize=1;strokeColor=none;fillColor=none;" parent="1" vertex="1">
          <mxGeometry x="340" y="1018" width="250" height="50" as="geometry" />
        </mxCell>
        <mxCell id="NY6FzfezgdDMYc2XJuMs-23" value="&lt;pre&gt;&lt;code class=&quot;!whitespace-pre hljs language-makefile&quot;&gt;Displays success message&lt;/code&gt;&lt;/pre&gt;" style="text;html=1;align=center;verticalAlign=middle;resizable=0;points=[];autosize=1;strokeColor=none;fillColor=none;" parent="1" vertex="1">
          <mxGeometry x="120" y="1078" width="190" height="50" as="geometry" />
        </mxCell>
        <mxCell id="NY6FzfezgdDMYc2XJuMs-24" value="&lt;pre&gt;&lt;code class=&quot;!whitespace-pre hljs language-makefile&quot;&gt;Requests to delete a repair task&lt;/code&gt;&lt;/pre&gt;" style="text;html=1;align=center;verticalAlign=middle;resizable=0;points=[];autosize=1;strokeColor=none;fillColor=none;" parent="1" vertex="1">
          <mxGeometry x="90" y="1140" width="250" height="50" as="geometry" />
        </mxCell>
        <mxCell id="NY6FzfezgdDMYc2XJuMs-25" value="&lt;pre&gt;&lt;code class=&quot;!whitespace-pre hljs language-makefile&quot;&gt;Displays delete repair task &lt;br&gt;confirmation&lt;/code&gt;&lt;/pre&gt;" style="text;html=1;align=center;verticalAlign=middle;resizable=0;points=[];autosize=1;strokeColor=none;fillColor=none;" parent="1" vertex="1">
          <mxGeometry x="105" y="1200" width="220" height="70" as="geometry" />
        </mxCell>
        <mxCell id="NY6FzfezgdDMYc2XJuMs-26" value="&lt;pre&gt;&lt;code class=&quot;!whitespace-pre hljs language-makefile&quot;&gt;Confirms deletion of task&lt;/code&gt;&lt;/pre&gt;" style="text;html=1;align=center;verticalAlign=middle;resizable=0;points=[];autosize=1;strokeColor=none;fillColor=none;" parent="1" vertex="1">
          <mxGeometry x="110" y="1278" width="200" height="50" as="geometry" />
        </mxCell>
        <mxCell id="NY6FzfezgdDMYc2XJuMs-27" value="&lt;pre&gt;&lt;code class=&quot;!whitespace-pre hljs language-makefile&quot;&gt;Deletes task data&lt;/code&gt;&lt;/pre&gt;" style="text;html=1;align=center;verticalAlign=middle;resizable=0;points=[];autosize=1;strokeColor=none;fillColor=none;" parent="1" vertex="1">
          <mxGeometry x="360" y="1320" width="140" height="50" as="geometry" />
        </mxCell>
        <mxCell id="NY6FzfezgdDMYc2XJuMs-28" value="&lt;pre&gt;&lt;code class=&quot;!whitespace-pre hljs language-makefile&quot;&gt;Confirms successful task deletion&lt;/code&gt;&lt;/pre&gt;" style="text;html=1;align=center;verticalAlign=middle;resizable=0;points=[];autosize=1;strokeColor=none;fillColor=none;" parent="1" vertex="1">
          <mxGeometry x="340" y="1390" width="250" height="50" as="geometry" />
        </mxCell>
        <mxCell id="NY6FzfezgdDMYc2XJuMs-29" value="&lt;pre&gt;&lt;code class=&quot;!whitespace-pre hljs language-makefile&quot;&gt;Displays success message&lt;/code&gt;&lt;/pre&gt;" style="text;html=1;align=center;verticalAlign=middle;resizable=0;points=[];autosize=1;strokeColor=none;fillColor=none;" parent="1" vertex="1">
          <mxGeometry x="120" y="1430" width="190" height="50" as="geometry" />
        </mxCell>
        <mxCell id="NY6FzfezgdDMYc2XJuMs-30" value="" style="endArrow=block;endFill=0;endSize=12;html=1;rounded=0;" parent="1" edge="1">
          <mxGeometry width="160" relative="1" as="geometry">
            <mxPoint x="100" y="190" as="sourcePoint" />
            <mxPoint x="330" y="190" as="targetPoint" />
          </mxGeometry>
        </mxCell>
        <mxCell id="NY6FzfezgdDMYc2XJuMs-31" value="" style="endArrow=block;endFill=0;endSize=12;html=1;rounded=0;" parent="1" edge="1">
          <mxGeometry width="160" relative="1" as="geometry">
            <mxPoint x="340" y="250" as="sourcePoint" />
            <mxPoint x="590" y="250" as="targetPoint" />
          </mxGeometry>
        </mxCell>
        <mxCell id="NY6FzfezgdDMYc2XJuMs-32" value="" style="endArrow=block;endFill=0;endSize=12;html=1;rounded=0;dashed=1;" parent="1" edge="1">
          <mxGeometry width="160" relative="1" as="geometry">
            <mxPoint x="590" y="310" as="sourcePoint" />
            <mxPoint x="340" y="310" as="targetPoint" />
          </mxGeometry>
        </mxCell>
        <mxCell id="NY6FzfezgdDMYc2XJuMs-33" value="" style="endArrow=block;endFill=0;endSize=12;html=1;rounded=0;dashed=1;" parent="1" edge="1">
          <mxGeometry width="160" relative="1" as="geometry">
            <mxPoint x="330" y="360" as="sourcePoint" />
            <mxPoint x="100" y="360" as="targetPoint" />
          </mxGeometry>
        </mxCell>
        <mxCell id="NY6FzfezgdDMYc2XJuMs-34" value="" style="endArrow=block;endFill=0;endSize=12;html=1;rounded=0;" parent="1" edge="1">
          <mxGeometry width="160" relative="1" as="geometry">
            <mxPoint x="100" y="430" as="sourcePoint" />
            <mxPoint x="330" y="430" as="targetPoint" />
          </mxGeometry>
        </mxCell>
        <mxCell id="NY6FzfezgdDMYc2XJuMs-35" value="" style="endArrow=block;endFill=0;endSize=12;html=1;rounded=0;" parent="1" edge="1">
          <mxGeometry width="160" relative="1" as="geometry">
            <mxPoint x="330" y="490" as="sourcePoint" />
            <mxPoint x="100" y="490" as="targetPoint" />
          </mxGeometry>
        </mxCell>
        <mxCell id="NY6FzfezgdDMYc2XJuMs-36" value="" style="endArrow=block;endFill=0;endSize=12;html=1;rounded=0;" parent="1" edge="1">
          <mxGeometry width="160" relative="1" as="geometry">
            <mxPoint x="100" y="550" as="sourcePoint" />
            <mxPoint x="330" y="550" as="targetPoint" />
          </mxGeometry>
        </mxCell>
        <mxCell id="NY6FzfezgdDMYc2XJuMs-37" value="" style="endArrow=block;endFill=0;endSize=12;html=1;rounded=0;" parent="1" edge="1">
          <mxGeometry width="160" relative="1" as="geometry">
            <mxPoint x="340" y="600" as="sourcePoint" />
            <mxPoint x="590" y="600" as="targetPoint" />
          </mxGeometry>
        </mxCell>
        <mxCell id="NY6FzfezgdDMYc2XJuMs-38" value="" style="endArrow=block;endFill=0;endSize=12;html=1;rounded=0;entryX=1.024;entryY=0.8;entryDx=0;entryDy=0;entryPerimeter=0;exitX=1.024;exitY=0.8;exitDx=0;exitDy=0;exitPerimeter=0;dashed=1;" parent="1" source="NY6FzfezgdDMYc2XJuMs-16" edge="1">
          <mxGeometry width="160" relative="1" as="geometry">
            <mxPoint x="570" y="670" as="sourcePoint" />
            <mxPoint x="340" y="670" as="targetPoint" />
          </mxGeometry>
        </mxCell>
        <mxCell id="NY6FzfezgdDMYc2XJuMs-39" value="" style="endArrow=block;endFill=0;endSize=12;html=1;rounded=0;dashed=1;" parent="1" edge="1">
          <mxGeometry width="160" relative="1" as="geometry">
            <mxPoint x="330" y="730" as="sourcePoint" />
            <mxPoint x="100" y="730" as="targetPoint" />
          </mxGeometry>
        </mxCell>
        <mxCell id="NY6FzfezgdDMYc2XJuMs-40" value="" style="endArrow=block;endFill=0;endSize=12;html=1;rounded=0;" parent="1" edge="1">
          <mxGeometry width="160" relative="1" as="geometry">
            <mxPoint x="100" y="800" as="sourcePoint" />
            <mxPoint x="330" y="800" as="targetPoint" />
          </mxGeometry>
        </mxCell>
        <mxCell id="NY6FzfezgdDMYc2XJuMs-41" value="" style="endArrow=block;endFill=0;endSize=12;html=1;rounded=0;" parent="1" edge="1">
          <mxGeometry width="160" relative="1" as="geometry">
            <mxPoint x="330" y="870" as="sourcePoint" />
            <mxPoint x="100" y="870" as="targetPoint" />
          </mxGeometry>
        </mxCell>
        <mxCell id="NY6FzfezgdDMYc2XJuMs-42" value="" style="endArrow=block;endFill=0;endSize=12;html=1;rounded=0;" parent="1" edge="1">
          <mxGeometry width="160" relative="1" as="geometry">
            <mxPoint x="100" y="940" as="sourcePoint" />
            <mxPoint x="330" y="940" as="targetPoint" />
          </mxGeometry>
        </mxCell>
        <mxCell id="NY6FzfezgdDMYc2XJuMs-43" value="" style="endArrow=block;endFill=0;endSize=12;html=1;rounded=0;" parent="1" edge="1">
          <mxGeometry width="160" relative="1" as="geometry">
            <mxPoint x="340" y="990" as="sourcePoint" />
            <mxPoint x="590" y="990" as="targetPoint" />
          </mxGeometry>
        </mxCell>
        <mxCell id="NY6FzfezgdDMYc2XJuMs-45" value="" style="endArrow=block;endFill=0;endSize=12;html=1;rounded=0;entryX=1.016;entryY=0.84;entryDx=0;entryDy=0;entryPerimeter=0;exitX=1.016;exitY=0.84;exitDx=0;exitDy=0;exitPerimeter=0;dashed=1;" parent="1" source="NY6FzfezgdDMYc2XJuMs-22" edge="1">
          <mxGeometry width="160" relative="1" as="geometry">
            <mxPoint x="570" y="1060" as="sourcePoint" />
            <mxPoint x="340" y="1060" as="targetPoint" />
          </mxGeometry>
        </mxCell>
        <mxCell id="NY6FzfezgdDMYc2XJuMs-46" value="" style="endArrow=block;endFill=0;endSize=12;html=1;rounded=0;dashed=1;" parent="1" edge="1">
          <mxGeometry width="160" relative="1" as="geometry">
            <mxPoint x="330" y="1120" as="sourcePoint" />
            <mxPoint x="100" y="1120" as="targetPoint" />
          </mxGeometry>
        </mxCell>
        <mxCell id="NY6FzfezgdDMYc2XJuMs-47" value="" style="endArrow=block;endFill=0;endSize=12;html=1;rounded=0;" parent="1" edge="1">
          <mxGeometry width="160" relative="1" as="geometry">
            <mxPoint x="100" y="1180" as="sourcePoint" />
            <mxPoint x="330" y="1180" as="targetPoint" />
          </mxGeometry>
        </mxCell>
        <mxCell id="NY6FzfezgdDMYc2XJuMs-48" value="" style="endArrow=block;endFill=0;endSize=12;html=1;rounded=0;" parent="1" edge="1">
          <mxGeometry width="160" relative="1" as="geometry">
            <mxPoint x="330" y="1250" as="sourcePoint" />
            <mxPoint x="100" y="1250" as="targetPoint" />
          </mxGeometry>
        </mxCell>
        <mxCell id="NY6FzfezgdDMYc2XJuMs-49" value="" style="endArrow=block;endFill=0;endSize=12;html=1;rounded=0;" parent="1" edge="1">
          <mxGeometry width="160" relative="1" as="geometry">
            <mxPoint x="100" y="1320" as="sourcePoint" />
            <mxPoint x="330" y="1320" as="targetPoint" />
          </mxGeometry>
        </mxCell>
        <mxCell id="NY6FzfezgdDMYc2XJuMs-50" value="" style="endArrow=block;endFill=0;endSize=12;html=1;rounded=0;" parent="1" edge="1">
          <mxGeometry width="160" relative="1" as="geometry">
            <mxPoint x="340" y="1360" as="sourcePoint" />
            <mxPoint x="590" y="1360" as="targetPoint" />
          </mxGeometry>
        </mxCell>
        <mxCell id="NY6FzfezgdDMYc2XJuMs-51" value="" style="endArrow=block;endFill=0;endSize=12;html=1;rounded=0;entryX=1.008;entryY=0.8;entryDx=0;entryDy=0;entryPerimeter=0;dashed=1;" parent="1" target="NY6FzfezgdDMYc2XJuMs-28" edge="1">
          <mxGeometry width="160" relative="1" as="geometry">
            <mxPoint x="340" y="1430" as="sourcePoint" />
            <mxPoint x="570" y="1430" as="targetPoint" />
          </mxGeometry>
        </mxCell>
        <mxCell id="NY6FzfezgdDMYc2XJuMs-52" value="" style="endArrow=block;endFill=0;endSize=12;html=1;rounded=0;dashed=1;" parent="1" edge="1">
          <mxGeometry width="160" relative="1" as="geometry">
            <mxPoint x="330" y="1470" as="sourcePoint" />
            <mxPoint x="100" y="1470" as="targetPoint" />
          </mxGeometry>
        </mxCell>
        <mxCell id="NY6FzfezgdDMYc2XJuMs-55" value="" style="endArrow=block;dashed=1;endFill=0;endSize=12;html=1;rounded=0;" parent="1" target="NY6FzfezgdDMYc2XJuMs-54" edge="1">
          <mxGeometry width="160" relative="1" as="geometry">
            <mxPoint x="334.5" y="95" as="sourcePoint" />
            <mxPoint x="335" y="1520" as="targetPoint" />
          </mxGeometry>
        </mxCell>
        <mxCell id="NY6FzfezgdDMYc2XJuMs-54" value="" style="html=1;points=[];perimeter=orthogonalPerimeter;outlineConnect=0;targetShapes=umlLifeline;portConstraint=eastwest;newEdgeStyle={&quot;edgeStyle&quot;:&quot;elbowEdgeStyle&quot;,&quot;elbow&quot;:&quot;vertical&quot;,&quot;curved&quot;:0,&quot;rounded&quot;:0};" parent="1" vertex="1">
          <mxGeometry x="330" y="170" width="10" height="1310" as="geometry" />
        </mxCell>
        <mxCell id="NY6FzfezgdDMYc2XJuMs-57" value="" style="endArrow=block;dashed=1;endFill=0;endSize=12;html=1;rounded=0;" parent="1" target="NY6FzfezgdDMYc2XJuMs-56" edge="1">
          <mxGeometry width="160" relative="1" as="geometry">
            <mxPoint x="594.5" y="95" as="sourcePoint" />
            <mxPoint x="595" y="1520" as="targetPoint" />
          </mxGeometry>
        </mxCell>
        <mxCell id="NY6FzfezgdDMYc2XJuMs-56" value="" style="html=1;points=[];perimeter=orthogonalPerimeter;outlineConnect=0;targetShapes=umlLifeline;portConstraint=eastwest;newEdgeStyle={&quot;edgeStyle&quot;:&quot;elbowEdgeStyle&quot;,&quot;elbow&quot;:&quot;vertical&quot;,&quot;curved&quot;:0,&quot;rounded&quot;:0};" parent="1" vertex="1">
          <mxGeometry x="590" y="220" width="10" height="1220" as="geometry" />
        </mxCell>
        <mxCell id="VPYbBKazouHFQtkJ5CW9-1" value="Repair management" style="text;html=1;align=center;verticalAlign=middle;resizable=0;points=[];autosize=1;strokeColor=none;fillColor=none;" vertex="1" parent="1">
          <mxGeometry x="265" width="140" height="30" as="geometry" />
        </mxCell>
      </root>
    </mxGraphModel>
  </diagram>
</mxfile>
